<?xml version="1.0" encoding="utf-8"?>
<!-- Generator: Adobe Illustrator 15.1.0, SVG Export Plug-In . SVG Version: 6.00 Build 0)  -->
<!DOCTYPE svg PUBLIC "-//W3C//DTD SVG 1.1//EN" "http://www.w3.org/Graphics/SVG/1.1/DTD/svg11.dtd">
<svg version="1.1" id="Layer_1" xmlns="http://www.w3.org/2000/svg" xmlns:xlink="http://www.w3.org/1999/xlink" x="0px" y="0px"
	 width="612px" height="200px" viewBox="0 0 612 200" enable-background="new 0 0 612 200" xml:space="preserve">
<g>
	<defs>
		<rect id="SVGID_1_" x="0.396" y="-164.667" width="612" height="792.001"/>
	</defs>
	<clipPath id="SVGID_2_">
		<use xlink:href="#SVGID_1_"  overflow="visible"/>
	</clipPath>
	<path clip-path="url(#SVGID_2_)" fill="none" stroke="#000000" stroke-width="3" stroke-miterlimit="10" d="M91.896,56.442
		c0,15.542-12.816,28.141-28.625,28.141c-11.246,0-20.979-6.377-25.659-15.654c-1.899-3.762-2.966-8.002-2.966-12.487
		c0-15.542,12.816-28.14,28.625-28.14S91.896,40.9,91.896,56.442z"/>
	
		<ellipse clip-path="url(#SVGID_2_)" fill="none" stroke="#000000" stroke-width="2" stroke-miterlimit="10" cx="49.209" cy="101.458" rx="7.813" ry="8.375"/>
	
		<line clip-path="url(#SVGID_2_)" fill="none" stroke="#000000" stroke-width="2" stroke-miterlimit="10" x1="50.896" y1="93.083" x2="54.956" y2="83.374"/>
	
		<line clip-path="url(#SVGID_2_)" fill="none" stroke="#000000" stroke-width="4" stroke-miterlimit="10" x1="47.354" y1="103.773" x2="128.217" y2="70.833"/>
	<path clip-path="url(#SVGID_2_)" fill="none" stroke="#000000" stroke-width="2" stroke-miterlimit="10" d="M88.563,129.166
		l-39.354,18.668L88.563,129.166z"/>
	<polyline clip-path="url(#SVGID_2_)" fill="none" stroke="#000000" stroke-width="2" stroke-miterlimit="10" points="
		88.563,88.229 88.563,129.166 90.896,130.832 49.208,151.666 49.208,103.773 	"/>
	<polyline clip-path="url(#SVGID_2_)" fill="none" stroke="#000000" stroke-width="2" stroke-miterlimit="10" points="
		80.063,90.449 80.063,139.334 118.729,118.666 118.729,74.698 	"/>
	
		<line clip-path="url(#SVGID_2_)" fill="none" stroke="#000000" stroke-miterlimit="10" x1="82.729" y1="95.667" x2="82.729" y2="131.934"/>
	
		<line clip-path="url(#SVGID_2_)" fill="none" stroke="#000000" stroke-miterlimit="10" x1="116.063" y1="80" x2="116.063" y2="97"/>
	
		<line clip-path="url(#SVGID_2_)" fill="none" stroke="#000000" stroke-miterlimit="10" x1="113.229" y1="82.667" x2="113.229" y2="121.605"/>
	
		<line clip-path="url(#SVGID_2_)" fill="none" stroke="#000000" stroke-miterlimit="10" x1="114.563" y1="95.667" x2="114.563" y2="119.947"/>
	
		<line clip-path="url(#SVGID_2_)" fill="none" stroke="#000000" stroke-miterlimit="10" x1="109.729" y1="90.167" x2="109.729" y2="123.477"/>
	
		<line clip-path="url(#SVGID_2_)" fill="none" stroke="#000000" stroke-miterlimit="10" x1="106.563" y1="122.666" x2="106.563" y2="85.5"/>
	
		<line clip-path="url(#SVGID_2_)" fill="none" stroke="#000000" stroke-miterlimit="10" x1="103.896" y1="84.583" x2="103.896" y2="110.5"/>
	
		<line clip-path="url(#SVGID_2_)" fill="none" stroke="#000000" stroke-miterlimit="10" x1="98.396" y1="126.166" x2="98.396" y2="102.834"/>
	
		<line clip-path="url(#SVGID_2_)" fill="none" stroke="#000000" stroke-miterlimit="10" x1="96.729" y1="112.833" x2="96.729" y2="87.303"/>
	
		<line clip-path="url(#SVGID_2_)" fill="none" stroke="#000000" stroke-miterlimit="10" x1="92.896" y1="129.166" x2="92.896" y2="87.304"/>
	
		<line clip-path="url(#SVGID_2_)" fill="none" stroke="#000000" stroke-miterlimit="10" x1="84.396" y1="129.166" x2="84.396" y2="109.834"/>
	<path clip-path="url(#SVGID_2_)" d="M127.229,69.582c0,1.087-0.933,1.969-2.083,1.969s-2.084-0.882-2.084-1.969
		s0.934-1.969,2.084-1.969S127.229,68.495,127.229,69.582"/>
	
		<ellipse clip-path="url(#SVGID_2_)" fill="none" stroke="#000000" stroke-miterlimit="10" cx="125.146" cy="69.582" rx="2.083" ry="1.969"/>
	<path clip-path="url(#SVGID_2_)" d="M103.729,78.749c0,0.927-0.933,1.678-2.083,1.678s-2.084-0.751-2.084-1.678
		c0-0.926,0.934-1.677,2.084-1.677S103.729,77.823,103.729,78.749"/>
	
		<ellipse clip-path="url(#SVGID_2_)" fill="none" stroke="#000000" stroke-miterlimit="10" cx="101.646" cy="78.749" rx="2.083" ry="1.678"/>
	<path clip-path="url(#SVGID_2_)" d="M80.063,88.895c0,0.967-0.896,1.75-2,1.75s-2-0.783-2-1.75c0-0.966,0.896-1.75,2-1.75
		S80.063,87.929,80.063,88.895"/>
	
		<ellipse clip-path="url(#SVGID_2_)" fill="none" stroke="#000000" stroke-miterlimit="10" cx="78.063" cy="88.895" rx="2" ry="1.75"/>
	<path clip-path="url(#SVGID_2_)" d="M51.375,100.776c0,0.986-0.983,1.787-2.196,1.787c-1.212,0-2.196-0.801-2.196-1.787
		s0.984-1.786,2.196-1.786C50.392,98.99,51.375,99.79,51.375,100.776"/>
	
		<ellipse clip-path="url(#SVGID_2_)" fill="none" stroke="#000000" stroke-miterlimit="10" cx="49.179" cy="100.776" rx="2.196" ry="1.787"/>
	<polygon clip-path="url(#SVGID_2_)" fill="none" stroke="#000000" stroke-width="2" stroke-miterlimit="10" points="58.146,70.833 
		82.729,52.583 76.063,49.833 47.354,66.583 	"/>
	<polyline clip-path="url(#SVGID_2_)" fill="none" stroke="#000000" stroke-width="2" stroke-miterlimit="10" points="
		84.396,52.333 84.396,59.333 58.146,78.749 58.146,70.833 	"/>
	<path clip-path="url(#SVGID_2_)" d="M65.438,62.583c0,0.645-0.97,1.167-2.167,1.167c-1.196,0-2.166-0.522-2.166-1.167
		c0-0.644,0.97-1.167,2.166-1.167C64.467,61.416,65.438,61.938,65.438,62.583"/>
	
		<ellipse clip-path="url(#SVGID_2_)" fill="none" stroke="#000000" stroke-miterlimit="10" cx="63.271" cy="62.583" rx="2.167" ry="1.167"/>
	<path clip-path="url(#SVGID_2_)" d="M74.854,56.442c0,0.591-0.802,1.07-1.792,1.07c-0.989,0-1.791-0.479-1.791-1.07
		s0.802-1.07,1.791-1.07C74.052,55.373,74.854,55.852,74.854,56.442"/>
	
		<ellipse clip-path="url(#SVGID_2_)" fill="none" stroke="#000000" stroke-miterlimit="10" cx="73.063" cy="56.442" rx="1.792" ry="1.07"/>
	<polyline clip-path="url(#SVGID_2_)" fill="none" stroke="#000000" stroke-width="0.75" stroke-miterlimit="10" points="
		57.188,80.239 54.943,80.239 52.738,78.905 57.188,75.927 	"/>
	<polyline clip-path="url(#SVGID_2_)" fill="none" stroke="#000000" stroke-width="2" stroke-miterlimit="10" points="
		67.607,54.767 67.607,31.958 58.066,36.958 58.066,60.333 	"/>
	<path clip-path="url(#SVGID_2_)" fill="#FFF200" d="M62.195,41.083c0-1.381,0.287-2.5,0.642-2.5c0.354,0,0.641,1.119,0.641,2.5
		s-0.287,2.5-0.641,2.5C62.482,43.583,62.195,42.464,62.195,41.083"/>
	
		<ellipse clip-path="url(#SVGID_2_)" fill="none" stroke="#000000" stroke-width="2" stroke-miterlimit="10" cx="62.836" cy="41.083" rx="0.642" ry="2.5"/>
	<path clip-path="url(#SVGID_2_)" fill="#FFF200" d="M62.195,50.583c0-1.381,0.287-2.5,0.642-2.5c0.354,0,0.641,1.119,0.641,2.5
		s-0.287,2.5-0.641,2.5C62.482,53.083,62.195,51.964,62.195,50.583"/>
	
		<ellipse clip-path="url(#SVGID_2_)" fill="none" stroke="#000000" stroke-width="2" stroke-miterlimit="10" cx="62.836" cy="50.583" rx="0.642" ry="2.5"/>
	
		<ellipse clip-path="url(#SVGID_2_)" fill="none" stroke="#000000" stroke-width="3" stroke-miterlimit="10" cx="205.157" cy="53.525" rx="28.625" ry="28.141"/>
	<polygon clip-path="url(#SVGID_2_)" fill="none" stroke="#000000" stroke-width="3" stroke-miterlimit="10" points="
		195.896,105.166 195.896,146.832 264.563,114.5 264.563,75.999 	"/>
	
		<ellipse clip-path="url(#SVGID_2_)" fill="none" stroke="#000000" stroke-width="2" stroke-miterlimit="10" cx="241.221" cy="86.99" rx="5.807" ry="5.709"/>
	
		<line clip-path="url(#SVGID_2_)" fill="none" stroke="#000000" stroke-width="2" stroke-miterlimit="10" x1="236.909" y1="83.176" x2="225.444" y2="73.377"/>
	
		<line clip-path="url(#SVGID_2_)" fill="none" stroke="#000000" stroke-width="2" stroke-miterlimit="10" x1="203.028" y1="102.137" x2="203.028" y2="92.698"/>
	
		<line clip-path="url(#SVGID_2_)" fill="none" stroke="#000000" stroke-width="2" stroke-miterlimit="10" x1="223.25" y1="93.546" x2="223.25" y2="84.583"/>
	
		<line clip-path="url(#SVGID_2_)" fill="none" stroke="#000000" stroke-width="2" stroke-miterlimit="10" x1="242.196" y1="85.5" x2="242.196" y2="78.276"/>
	
		<line clip-path="url(#SVGID_2_)" fill="none" stroke="#000000" stroke-width="2" stroke-miterlimit="10" x1="259.201" y1="78.276" x2="259.201" y2="71.55"/>
	<path clip-path="url(#SVGID_2_)" d="M206.23,92.135c0,1.087-1.418,1.969-3.166,1.969c-1.749,0-3.167-0.882-3.167-1.969
		s1.418-1.969,3.167-1.969C204.812,90.166,206.23,91.048,206.23,92.135"/>
	
		<ellipse clip-path="url(#SVGID_2_)" fill="none" stroke="#000000" stroke-miterlimit="10" cx="203.063" cy="92.135" rx="3.167" ry="1.969"/>
	<path clip-path="url(#SVGID_2_)" d="M226.417,84.583c0,1.087-1.418,1.969-3.166,1.969c-1.749,0-3.167-0.882-3.167-1.969
		s1.418-1.969,3.167-1.969C225,82.614,226.417,83.496,226.417,84.583"/>
	
		<ellipse clip-path="url(#SVGID_2_)" fill="none" stroke="#000000" stroke-miterlimit="10" cx="223.251" cy="84.583" rx="3.167" ry="1.969"/>
	<path clip-path="url(#SVGID_2_)" d="M245.363,77.072c0,1.087-1.418,1.969-3.166,1.969c-1.749,0-3.167-0.882-3.167-1.969
		s1.418-1.969,3.167-1.969C243.945,75.103,245.363,75.985,245.363,77.072"/>
	
		<ellipse clip-path="url(#SVGID_2_)" fill="none" stroke="#000000" stroke-miterlimit="10" cx="242.196" cy="77.072" rx="3.167" ry="1.969"/>
	<path clip-path="url(#SVGID_2_)" d="M262.368,70.833c0,1.087-1.418,1.969-3.166,1.969c-1.749,0-3.167-0.882-3.167-1.969
		s1.418-1.969,3.167-1.969C260.95,68.864,262.368,69.746,262.368,70.833"/>
	
		<ellipse clip-path="url(#SVGID_2_)" fill="none" stroke="#000000" stroke-miterlimit="10" cx="259.201" cy="70.833" rx="3.167" ry="1.969"/>
	
		<line clip-path="url(#SVGID_2_)" fill="none" stroke="#000000" stroke-miterlimit="10" x1="202.23" y1="138.5" x2="202.23" y2="108.234"/>
	
		<line clip-path="url(#SVGID_2_)" fill="none" stroke="#000000" stroke-miterlimit="10" x1="208.23" y1="129.166" x2="208.23" y2="106.164"/>
	
		<line clip-path="url(#SVGID_2_)" fill="none" stroke="#000000" stroke-miterlimit="10" x1="216.523" y1="137.121" x2="216.523" y2="114.5"/>
	
		<line clip-path="url(#SVGID_2_)" fill="none" stroke="#000000" stroke-miterlimit="10" x1="219.063" y1="117.666" x2="219.063" y2="99.165"/>
	
		<line clip-path="url(#SVGID_2_)" fill="none" stroke="#000000" stroke-miterlimit="10" x1="222.799" y1="134.166" x2="222.799" y2="102.137"/>
	
		<line clip-path="url(#SVGID_2_)" fill="none" stroke="#000000" stroke-miterlimit="10" x1="233.782" y1="128.994" x2="233.782" y2="95.667"/>
	
		<line clip-path="url(#SVGID_2_)" fill="none" stroke="#000000" stroke-miterlimit="10" x1="250.063" y1="118.832" x2="250.063" y2="92.136"/>
	
		<line clip-path="url(#SVGID_2_)" fill="none" stroke="#000000" stroke-miterlimit="10" x1="254.063" y1="116.664" x2="254.063" y2="98.332"/>
	
		<line clip-path="url(#SVGID_2_)" fill="none" stroke="#000000" stroke-miterlimit="10" x1="258.23" y1="114.5" x2="258.23" y2="85.5"/>
	<polyline clip-path="url(#SVGID_2_)" fill="none" stroke="#000000" stroke-miterlimit="10" points="212.029,37.712 212.064,50.665 
		195.897,54.498 195.897,35.165 211.064,31.498 219.064,35.665 203.029,40.332 195.897,35.165 	"/>
	
		<ellipse clip-path="url(#SVGID_2_)" fill="none" stroke="#000000" stroke-width="0.5" stroke-miterlimit="10" cx="207.613" cy="35.549" rx="2.457" ry="1.051"/>
	<polygon clip-path="url(#SVGID_2_)" fill="none" stroke="#000000" stroke-miterlimit="10" points="210.07,64.167 210.646,69.75 
		214.98,72.802 212.146,74.914 182.146,51.917 182.146,45.333 195.563,54.499 	"/>
	<polyline clip-path="url(#SVGID_2_)" fill="none" stroke="#000000" stroke-miterlimit="10" points="210.07,64.167 222.896,58.5 
		212.064,50.665 	"/>
	<polyline clip-path="url(#SVGID_2_)" fill="none" stroke="#000000" stroke-miterlimit="10" points="210.896,64.167 219.063,72.5 
		220.813,71.917 223.25,68.865 223.25,58.5 	"/>
	<polyline clip-path="url(#SVGID_2_)" fill="none" stroke="#000000" stroke-width="0.5" stroke-miterlimit="10" points="
		220.892,59.385 220.892,68.864 219.063,69.666 212.773,62.972 	"/>
	
		<line clip-path="url(#SVGID_2_)" fill="none" stroke="#000000" stroke-miterlimit="10" x1="182.146" y1="44.915" x2="195.896" y2="41.081"/>
	
		<ellipse clip-path="url(#SVGID_2_)" fill="none" stroke="#000000" stroke-width="0.5" stroke-miterlimit="10" cx="208.439" cy="56.365" rx="2.457" ry="1.051"/>
	
		<ellipse clip-path="url(#SVGID_2_)" fill="none" stroke="#000000" stroke-width="0.5" stroke-miterlimit="10" cx="193.71" cy="46.833" rx="2.187" ry="1.051"/>
	
		<ellipse clip-path="url(#SVGID_2_)" fill="none" stroke="#000000" stroke-width="3" stroke-miterlimit="10" cx="339.484" cy="66.513" rx="28.625" ry="29.154"/>
	<path clip-path="url(#SVGID_2_)" fill="none" stroke="#000000" stroke-width="2" stroke-miterlimit="10" d="M330.396,112.33v37.336
		l85.5-40.5c0,0,4.666-3.061-1-7.029c-5.666-3.971-38.334-17.554-38.334-17.554v-28.75l35.834,15c0,0,10.5,4.053,2.834,7.443
		c-7.668,3.39-85.668,34.054-85.668,34.054"/>
	
		<line clip-path="url(#SVGID_2_)" fill="none" stroke="#000000" stroke-width="3.5" stroke-miterlimit="10" x1="415.383" y1="72.159" x2="415.383" y2="102.72"/>
	
		<line clip-path="url(#SVGID_2_)" fill="none" stroke="#000000" stroke-miterlimit="10" x1="342.318" y1="144.02" x2="342.318" y2="112.33"/>
	
		<line clip-path="url(#SVGID_2_)" fill="none" stroke="#000000" stroke-miterlimit="10" x1="357.73" y1="134.166" x2="357.73" y2="108.415"/>
	
		<line clip-path="url(#SVGID_2_)" fill="none" stroke="#000000" stroke-miterlimit="10" x1="361.063" y1="133" x2="361.063" y2="114.5"/>
	
		<line clip-path="url(#SVGID_2_)" fill="none" stroke="#000000" stroke-miterlimit="10" x1="362.563" y1="114.5" x2="362.563" y2="102.721"/>
	
		<line clip-path="url(#SVGID_2_)" fill="none" stroke="#000000" stroke-miterlimit="10" x1="365.58" y1="133" x2="365.58" y2="102.75"/>
	
		<line clip-path="url(#SVGID_2_)" fill="none" stroke="#000000" stroke-width="2" stroke-miterlimit="10" x1="375.768" y1="128.176" x2="375.768" y2="100"/>
	
		<line clip-path="url(#SVGID_2_)" fill="none" stroke="#000000" stroke-miterlimit="10" x1="382.145" y1="125.154" x2="382.145" y2="94.667"/>
	
		<line clip-path="url(#SVGID_2_)" fill="none" stroke="#000000" stroke-miterlimit="10" x1="385.396" y1="107.498" x2="385.396" y2="90.287"/>
	
		<line clip-path="url(#SVGID_2_)" fill="none" stroke="#000000" stroke-miterlimit="10" x1="392.047" y1="120.465" x2="392.047" y2="93.547"/>
	
		<line clip-path="url(#SVGID_2_)" fill="none" stroke="#000000" stroke-miterlimit="10" x1="396.063" y1="118.15" x2="396.063" y2="105.483"/>
	
		<line clip-path="url(#SVGID_2_)" fill="none" stroke="#000000" stroke-miterlimit="10" x1="403.029" y1="115.262" x2="403.029" y2="98.892"/>
	
		<line clip-path="url(#SVGID_2_)" fill="none" stroke="#000000" stroke-miterlimit="10" x1="401.266" y1="95.286" x2="401.266" y2="77.072"/>
	
		<line clip-path="url(#SVGID_2_)" fill="none" stroke="#000000" stroke-miterlimit="10" x1="396.063" y1="63.996" x2="396.063" y2="92.699"/>
	
		<line clip-path="url(#SVGID_2_)" fill="none" stroke="#000000" stroke-miterlimit="10" x1="389.563" y1="78.276" x2="389.563" y2="63.997"/>
	
		<line clip-path="url(#SVGID_2_)" fill="none" stroke="#000000" stroke-miterlimit="10" x1="382.145" y1="86.552" x2="382.145" y2="65.5"/>
	
		<line clip-path="url(#SVGID_2_)" fill="none" stroke="#000000" stroke-miterlimit="10" x1="383.896" y1="73.377" x2="383.896" y2="58.903"/>
	
		<ellipse clip-path="url(#SVGID_2_)" fill="none" stroke="#000000" stroke-width="2" stroke-miterlimit="10" cx="371.563" cy="94.667" rx="6.658" ry="6.871"/>
	
		<line clip-path="url(#SVGID_2_)" fill="none" stroke="#000000" stroke-width="2" stroke-miterlimit="10" x1="366.434" y1="90.287" x2="361.063" y2="86.179"/>
	<polygon clip-path="url(#SVGID_2_)" fill="none" stroke="#000000" stroke-miterlimit="10" points="363.748,61 348.563,52.5 
		315.063,66.513 315.063,71.136 322.645,73.377 322.77,77.072 328.895,77.072 328.895,80.083 332.52,80.083 355.02,72.159 
		359.895,66.14 363.748,65.5 	"/>
	<path clip-path="url(#SVGID_2_)" d="M380.131,55.833c0,1.087-1.42,1.969-3.166,1.969c-1.75,0-3.168-0.882-3.168-1.969
		s1.418-1.969,3.168-1.969C378.711,53.864,380.131,54.747,380.131,55.833"/>
	<path clip-path="url(#SVGID_2_)" fill="none" stroke="#000000" stroke-miterlimit="10" d="M380.131,55.833
		c0,1.087-1.42,1.969-3.166,1.969c-1.75,0-3.168-0.882-3.168-1.969s1.418-1.969,3.168-1.969
		C378.711,53.864,380.131,54.747,380.131,55.833z"/>
	<polyline clip-path="url(#SVGID_2_)" fill="none" stroke="#000000" stroke-miterlimit="10" points="341.713,55.366 347.271,58.903 
		347.271,63.208 322.646,73.377 322.646,67.583 319.287,64.746 	"/>
	<polyline clip-path="url(#SVGID_2_)" fill="none" stroke="#000000" stroke-miterlimit="10" points="322.646,67.583 343.146,59.708 
		345.543,57.802 	"/>
	<polyline clip-path="url(#SVGID_2_)" fill="none" stroke="#000000" stroke-miterlimit="10" points="328.896,77.072 349.104,68.864 
		346.604,67.583 324.229,77.072 	"/>
	<polyline clip-path="url(#SVGID_2_)" fill="none" stroke="#000000" stroke-miterlimit="10" points="346.818,63.395 347.271,63.208 
		347.271,67.583 	"/>
	
		<line clip-path="url(#SVGID_2_)" fill="none" stroke="#000000" stroke-miterlimit="10" x1="348.354" y1="69.169" x2="356.896" y2="69.169"/>
	<polyline clip-path="url(#SVGID_2_)" fill="none" stroke="#000000" stroke-miterlimit="10" points="347.879,68.236 355.146,63.996 
		359.896,66.139 	"/>
	<path clip-path="url(#SVGID_2_)" d="M372.898,94.667c0,0.73-0.953,1.323-2.127,1.323c-1.176,0-2.127-0.593-2.127-1.323
		s0.951-1.323,2.127-1.323C371.945,93.344,372.898,93.937,372.898,94.667"/>
	
		<ellipse clip-path="url(#SVGID_2_)" fill="none" stroke="#000000" stroke-miterlimit="10" cx="370.771" cy="94.667" rx="2.127" ry="1.323"/>
	
		<ellipse clip-path="url(#SVGID_2_)" fill="none" stroke="#000000" stroke-width="3" stroke-miterlimit="10" cx="473.71" cy="61.989" rx="29.841" ry="30.01"/>
	<path clip-path="url(#SVGID_2_)" fill="none" stroke="#000000" stroke-width="3" stroke-miterlimit="10" d="M559.896,104.583
		l-1.375-0.875l-38.125-18.625l-1.76-0.917l-3.584-0.333c0,0-1-0.833-7.166-5.557c-6.166-4.723,34-19.373,34-19.373l-0.166-23.737
		c0,0-27.5,11.5-32.168,13.834c-4.666,2.333,0.168,4.865,0.168,4.865l51,22.161v3.932v24.125v1.125v4.702l-4.168,2.923
		c0,0-3.666,1.333-10.166,3.333S530.553,126,530.553,126h-4.332l-49.668,23.666l-0.656-34.832l83.5-34.751h0.625"/>
	
		<line clip-path="url(#SVGID_2_)" fill="none" stroke="#000000" stroke-miterlimit="10" x1="485.35" y1="145.475" x2="485.35" y2="123.832"/>
	
		<line clip-path="url(#SVGID_2_)" fill="none" stroke="#000000" stroke-width="2" stroke-miterlimit="10" x1="491.143" y1="142.715" x2="491.143" y2="113.334"/>
	
		<line clip-path="url(#SVGID_2_)" fill="none" stroke="#000000" stroke-width="2" stroke-miterlimit="10" x1="498.164" y1="139.369" x2="498.164" y2="112.083"/>
	
		<line clip-path="url(#SVGID_2_)" fill="none" stroke="#000000" stroke-miterlimit="10" x1="504.82" y1="136.197" x2="504.82" y2="123.334"/>
	
		<line clip-path="url(#SVGID_2_)" fill="none" stroke="#000000" stroke-miterlimit="10" x1="509.211" y1="134.105" x2="509.211" y2="115.459"/>
	
		<line clip-path="url(#SVGID_2_)" fill="none" stroke="#000000" stroke-miterlimit="10" x1="507.646" y1="120.584" x2="507.646" y2="105.708"/>
	
		<line clip-path="url(#SVGID_2_)" fill="none" stroke="#000000" stroke-miterlimit="10" x1="520.021" y1="128.023" x2="520.021" y2="102.75"/>
	
		<line clip-path="url(#SVGID_2_)" fill="none" stroke="#000000" stroke-miterlimit="10" x1="526.021" y1="124.781" x2="526.021" y2="106.708"/>
	
		<line clip-path="url(#SVGID_2_)" fill="none" stroke="#000000" stroke-miterlimit="10" x1="536.396" y1="118.959" x2="536.396" y2="96.083"/>
	
		<line clip-path="url(#SVGID_2_)" fill="none" stroke="#000000" stroke-miterlimit="10" x1="540.146" y1="115.387" x2="540.146" y2="107.521"/>
	
		<line clip-path="url(#SVGID_2_)" fill="none" stroke="#000000" stroke-miterlimit="10" x1="546.646" y1="113.146" x2="546.646" y2="99.333"/>
	
		<line clip-path="url(#SVGID_2_)" fill="none" stroke="#000000" stroke-miterlimit="10" x1="552.271" y1="111.453" x2="552.271" y2="84.333"/>
	
		<line clip-path="url(#SVGID_2_)" fill="none" stroke="#000000" stroke-miterlimit="10" x1="542.1" y1="95.686" x2="542.1" y2="68.958"/>
	
		<line clip-path="url(#SVGID_2_)" fill="none" stroke="#000000" stroke-width="4" stroke-miterlimit="10" x1="558.146" y1="111.453" x2="558.146" y2="74.908"/>
	
		<line clip-path="url(#SVGID_2_)" fill="none" stroke="#000000" stroke-miterlimit="10" x1="537.396" y1="81.708" x2="537.396" y2="66.833"/>
	
		<line clip-path="url(#SVGID_2_)" fill="none" stroke="#000000" stroke-width="3" stroke-miterlimit="10" x1="507.646" y1="74.907" x2="507.646" y2="52.833"/>
	
		<line clip-path="url(#SVGID_2_)" fill="none" stroke="#000000" stroke-miterlimit="10" x1="521.021" y1="54.708" x2="521.021" y2="44.458"/>
	
		<line clip-path="url(#SVGID_2_)" fill="none" stroke="#000000" stroke-width="2" stroke-miterlimit="10" x1="521.805" y1="85.771" x2="521.805" y2="59.116"/>
	
		<line clip-path="url(#SVGID_2_)" fill="none" stroke="#000000" stroke-miterlimit="10" x1="549.781" y1="71.272" x2="549.781" y2="84.084"/>
	
		<line clip-path="url(#SVGID_2_)" fill="none" stroke="#000000" stroke-width="3" stroke-miterlimit="10" x1="477.209" y1="114.287" x2="477.209" y2="97.893"/>
	
		<line clip-path="url(#SVGID_2_)" fill="none" stroke="#000000" stroke-width="3" stroke-miterlimit="10" x1="559.021" y1="74.907" x2="559.021" y2="62.708"/>
	
		<line clip-path="url(#SVGID_2_)" fill="none" stroke="#000000" stroke-width="3" stroke-miterlimit="10" x1="545.219" y1="69.29" x2="545.219" y2="54.083"/>
	
		<line clip-path="url(#SVGID_2_)" fill="none" stroke="#000000" stroke-width="3" stroke-miterlimit="10" x1="509.211" y1="49.182" x2="509.211" y2="36.208"/>
	
		<line clip-path="url(#SVGID_2_)" fill="none" stroke="#000000" stroke-width="3" stroke-miterlimit="10" x1="540.646" y1="35.167" x2="540.646" y2="23.958"/>
	
		<line clip-path="url(#SVGID_2_)" fill="none" stroke="#000000" stroke-miterlimit="10" x1="534.908" y1="61.583" x2="534.908" y2="49.583"/>
	
		<line clip-path="url(#SVGID_2_)" fill="none" stroke="#000000" stroke-miterlimit="10" x1="529.146" y1="61.989" x2="529.146" y2="50.833"/>
	
		<line clip-path="url(#SVGID_2_)" fill="none" stroke="#000000" stroke-miterlimit="10" x1="511.109" y1="72.906" x2="511.109" y2="63.87"/>
	
		<line clip-path="url(#SVGID_2_)" fill="none" stroke="#000000" stroke-miterlimit="10" x1="517.396" y1="68.388" x2="517.396" y2="60.083"/>
	
		<line clip-path="url(#SVGID_2_)" fill="none" stroke="#000000" stroke-miterlimit="10" x1="529.146" y1="88.311" x2="529.146" y2="71.272"/>
	
		<ellipse clip-path="url(#SVGID_2_)" fill="none" stroke="#000000" stroke-width="2" stroke-miterlimit="10" cx="515.771" cy="98.681" rx="7.276" ry="7.318"/>
	
		<line clip-path="url(#SVGID_2_)" fill="none" stroke="#000000" stroke-width="2" stroke-miterlimit="10" x1="515.771" y1="98.238" x2="515.771" y2="84.333"/>
	
		<line clip-path="url(#SVGID_2_)" fill="none" stroke="#000000" stroke-width="2" stroke-miterlimit="10" x1="496.203" y1="81.708" x2="509.863" y2="94.412"/>
	<polygon clip-path="url(#SVGID_2_)" fill="none" stroke="#000000" stroke-width="2" stroke-miterlimit="10" points="
		465.646,56.411 465.646,37.833 485.35,42.695 485.35,62.708 	"/>
	
		<ellipse clip-path="url(#SVGID_2_)" fill="none" stroke="#000000" stroke-width="0.5" stroke-miterlimit="10" cx="470.271" cy="44.458" rx="1.87" ry="1.881"/>
	
		<ellipse clip-path="url(#SVGID_2_)" fill="none" stroke="#000000" stroke-width="0.5" stroke-miterlimit="10" cx="475.497" cy="45.692" rx="1.87" ry="1.881"/>
	
		<ellipse clip-path="url(#SVGID_2_)" fill="none" stroke="#000000" stroke-width="0.5" stroke-miterlimit="10" cx="480.646" cy="47.301" rx="1.87" ry="1.881"/>
	<polyline clip-path="url(#SVGID_2_)" fill="none" stroke="#000000" stroke-miterlimit="10" points="454.584,66.646 465.646,72.458 
		497.021,50.271 497.021,58.083 465.334,83.021 462.771,83.396 460.709,81.208 463.521,80.708 465.646,79.021 465.646,73.021 
		465.646,72.708 	"/>
	<polyline clip-path="url(#SVGID_2_)" fill="none" stroke="#000000" stroke-width="0.5" stroke-miterlimit="10" points="
		497.021,55.833 465.646,79.583 465.646,82.958 	"/>
	<polyline clip-path="url(#SVGID_2_)" fill="none" stroke="#000000" stroke-miterlimit="10" points="465.646,73.771 456.957,81.083 
		452.896,78.896 452.896,68.021 469.35,57.595 	"/>
	
		<line clip-path="url(#SVGID_2_)" fill="none" stroke="#000000" stroke-width="0.5" stroke-miterlimit="10" x1="452.896" y1="68.271" x2="465.646" y2="74.896"/>
	<polyline clip-path="url(#SVGID_2_)" fill="none" stroke="#000000" stroke-width="0.5" stroke-miterlimit="10" points="
		458.674,79.639 454.896,77.521 454.896,69.396 	"/>
	
		<line clip-path="url(#SVGID_2_)" fill="none" stroke="#000000" stroke-width="0.25" stroke-miterlimit="10" x1="454.896" y1="77.521" x2="461.123" y2="72.545"/>
	
		<line clip-path="url(#SVGID_2_)" fill="none" stroke="#000000" stroke-width="0.5" stroke-miterlimit="10" x1="460.033" y1="81.083" x2="465.469" y2="76.771"/>
	
		<line clip-path="url(#SVGID_2_)" fill="none" stroke="#000000" stroke-miterlimit="10" x1="497.273" y1="49.634" x2="486.398" y2="46.937"/>
	
		<line clip-path="url(#SVGID_2_)" fill="none" stroke="#000000" stroke-width="0.25" stroke-miterlimit="10" x1="215.708" y1="72.802" x2="210.646" y2="67.771"/>
	
		<ellipse clip-path="url(#SVGID_2_)" fill="none" stroke="#000000" stroke-width="0.5" stroke-miterlimit="10" cx="471.517" cy="62.708" rx="1.87" ry="1.881"/>
	<polyline clip-path="url(#SVGID_2_)" fill="none" stroke="#000000" stroke-miterlimit="10" points="45.646,66.833 45.646,75.927 
		49.415,78.083 58.399,72.429 	"/>
	<polyline clip-path="url(#SVGID_2_)" fill="none" stroke="#000000" stroke-width="0.75" stroke-miterlimit="10" points="
		50.896,76.875 47.979,75.271 47.979,67.292 	"/>
</g>
<text transform="matrix(1 0 0 1 52.396 179.333)" font-family="'Roboto-Regular'" font-size="12">Wall Mount</text>
<text transform="matrix(1 0 0 1 172.396 179.333)" font-family="'Roboto-Regular'" font-size="12">Threaded Rod Mount</text>
<text transform="matrix(1 0 0 1 334.3965 179.333)" font-family="'Roboto-Regular'" font-size="12">Ceiling Mount</text>
<text transform="matrix(1 0 0 1 471.3965 179.333)" font-family="'Roboto-Regular'" font-size="12">Chain Link Mount</text>
</svg>
