<?xml version="1.0" encoding="utf-8"?>
<!-- Generator: Adobe Illustrator 16.0.0, SVG Export Plug-In . SVG Version: 6.00 Build 0)  -->
<!DOCTYPE svg PUBLIC "-//W3C//DTD SVG 1.1//EN" "http://www.w3.org/Graphics/SVG/1.1/DTD/svg11.dtd">
<svg version="1.1" id="Layer_2" xmlns="http://www.w3.org/2000/svg" xmlns:xlink="http://www.w3.org/1999/xlink" x="0px" y="0px"
	 width="651px" height="178px" viewBox="0 0 651 178" enable-background="new 0 0 651 178" xml:space="preserve">
<path fill="none" stroke="#000000" stroke-width="3" stroke-miterlimit="10" d="M119.712,56.008
	c0,15.542-12.816,28.141-28.625,28.141c-11.247,0-20.979-6.376-25.66-15.653c-1.898-3.763-2.966-8.002-2.966-12.487
	c0-15.542,12.816-28.14,28.625-28.14C106.896,27.868,119.712,40.467,119.712,56.008z"/>
<ellipse fill="none" stroke="#000000" stroke-width="2" stroke-miterlimit="10" cx="77.025" cy="101.024" rx="7.813" ry="8.375"/>
<line fill="none" stroke="#000000" stroke-width="2" stroke-miterlimit="10" x1="78.712" y1="92.649" x2="82.772" y2="82.939"/>
<line fill="none" stroke="#000000" stroke-width="4" stroke-miterlimit="10" x1="75.17" y1="103.339" x2="156.034" y2="70.399"/>
<path fill="none" stroke="#000000" stroke-width="2" stroke-miterlimit="10" d="M116.379,128.732l-39.354,18.667L116.379,128.732z"
	/>
<polyline fill="none" stroke="#000000" stroke-width="2" stroke-miterlimit="10" points="116.379,87.794 116.379,128.732 
	118.712,130.399 77.025,151.232 77.025,103.339 "/>
<polyline fill="none" stroke="#000000" stroke-width="2" stroke-miterlimit="10" points="107.879,90.015 107.879,138.899 
	146.546,118.232 146.546,74.264 "/>
<line fill="none" stroke="#000000" stroke-miterlimit="10" x1="110.546" y1="95.232" x2="110.546" y2="131.499"/>
<line fill="none" stroke="#000000" stroke-miterlimit="10" x1="143.879" y1="79.565" x2="143.879" y2="96.565"/>
<line fill="none" stroke="#000000" stroke-miterlimit="10" x1="141.046" y1="82.232" x2="141.046" y2="121.172"/>
<line fill="none" stroke="#000000" stroke-miterlimit="10" x1="142.379" y1="95.232" x2="142.379" y2="119.513"/>
<line fill="none" stroke="#000000" stroke-miterlimit="10" x1="137.546" y1="89.732" x2="137.546" y2="123.042"/>
<line fill="none" stroke="#000000" stroke-miterlimit="10" x1="134.379" y1="122.232" x2="134.379" y2="85.065"/>
<line fill="none" stroke="#000000" stroke-miterlimit="10" x1="131.712" y1="84.149" x2="131.712" y2="110.065"/>
<line fill="none" stroke="#000000" stroke-miterlimit="10" x1="126.212" y1="125.732" x2="126.212" y2="102.399"/>
<line fill="none" stroke="#000000" stroke-miterlimit="10" x1="124.546" y1="112.399" x2="124.546" y2="86.869"/>
<line fill="none" stroke="#000000" stroke-miterlimit="10" x1="120.712" y1="128.732" x2="120.712" y2="86.869"/>
<line fill="none" stroke="#000000" stroke-miterlimit="10" x1="112.212" y1="128.732" x2="112.212" y2="109.399"/>
<path fill="#FFF200" stroke="#000000" stroke-miterlimit="10" d="M152.879,69.398"/>
<ellipse stroke="#000000" stroke-miterlimit="10" cx="152.962" cy="69.148" rx="2.083" ry="1.969"/>
<ellipse stroke="#000000" stroke-miterlimit="10" cx="129.462" cy="78.314" rx="2.083" ry="1.678"/>
<ellipse stroke="#000000" stroke-miterlimit="10" cx="105.879" cy="88.46" rx="2" ry="1.75"/>
<ellipse stroke="#000000" stroke-miterlimit="10" cx="76.996" cy="100.342" rx="2.196" ry="1.787"/>
<polygon fill="none" stroke="#000000" stroke-width="2" stroke-miterlimit="10" points="85.962,70.399 110.546,52.149 
	103.879,49.399 75.17,66.149 "/>
<polyline fill="none" stroke="#000000" stroke-width="2" stroke-miterlimit="10" points="112.212,51.899 112.212,58.899 
	85.962,78.315 85.962,70.399 "/>
<ellipse stroke="#000000" stroke-miterlimit="10" cx="91.087" cy="62.148" rx="2.167" ry="1.167"/>
<ellipse stroke="#000000" stroke-miterlimit="10" cx="100.879" cy="56.008" rx="1.792" ry="1.07"/>
<polyline fill="none" stroke="#000000" stroke-width="0.75" stroke-miterlimit="10" points="85.005,79.805 82.76,79.805 
	80.555,78.471 85.005,75.493 "/>
<polyline fill="none" stroke="#000000" stroke-width="2" stroke-miterlimit="10" points="95.423,54.333 95.423,31.524 
	85.882,36.524 85.882,59.899 "/>
<path fill="none" stroke="#000000" stroke-width="2" stroke-miterlimit="10" d="M84.838,36.524"/>
<path fill="none" stroke="#000000" stroke-width="3" stroke-miterlimit="10" d="M115,0"/>
<ellipse fill="#FFF200" stroke="#000000" stroke-width="2" stroke-miterlimit="10" cx="90.653" cy="40.649" rx="0.641" ry="2.5"/>
<ellipse fill="#FFF200" stroke="#000000" stroke-width="2" stroke-miterlimit="10" cx="90.653" cy="50.149" rx="0.641" ry="2.5"/>
<ellipse fill="none" stroke="#000000" stroke-width="3" stroke-miterlimit="10" cx="232.973" cy="53.091" rx="28.625" ry="28.141"/>
<polygon fill="none" stroke="#000000" stroke-width="3" stroke-miterlimit="10" points="223.713,104.731 223.713,146.398 
	292.38,114.066 292.38,75.564 "/>
<ellipse fill="none" stroke="#000000" stroke-width="2" stroke-miterlimit="10" cx="269.038" cy="86.556" rx="5.807" ry="5.709"/>
<line fill="none" stroke="#000000" stroke-width="2" stroke-miterlimit="10" x1="264.725" y1="82.742" x2="253.26" y2="72.943"/>
<line fill="none" stroke="#000000" stroke-width="2" stroke-miterlimit="10" x1="230.845" y1="101.702" x2="230.845" y2="92.265"/>
<line fill="none" stroke="#000000" stroke-width="2" stroke-miterlimit="10" x1="251.067" y1="93.112" x2="251.067" y2="84.149"/>
<line fill="none" stroke="#000000" stroke-width="2" stroke-miterlimit="10" x1="270.012" y1="85.065" x2="270.012" y2="77.842"/>
<line fill="none" stroke="#000000" stroke-width="2" stroke-miterlimit="10" x1="287.017" y1="77.842" x2="287.017" y2="71.117"/>
<ellipse stroke="#000000" stroke-miterlimit="10" cx="230.88" cy="91.701" rx="3.167" ry="1.969"/>
<ellipse stroke="#000000" stroke-miterlimit="10" cx="251.067" cy="84.149" rx="3.167" ry="1.969"/>
<ellipse stroke="#000000" stroke-miterlimit="10" cx="270.012" cy="76.638" rx="3.167" ry="1.969"/>
<ellipse stroke="#000000" stroke-miterlimit="10" cx="287.017" cy="70.399" rx="3.167" ry="1.969"/>
<line fill="none" stroke="#000000" stroke-miterlimit="10" x1="230.046" y1="138.066" x2="230.046" y2="107.801"/>
<line fill="none" stroke="#000000" stroke-miterlimit="10" x1="236.046" y1="128.732" x2="236.046" y2="105.73"/>
<line fill="none" stroke="#000000" stroke-miterlimit="10" x1="244.339" y1="136.686" x2="244.339" y2="114.066"/>
<line fill="none" stroke="#000000" stroke-miterlimit="10" x1="246.88" y1="117.231" x2="246.88" y2="98.73"/>
<line fill="none" stroke="#000000" stroke-miterlimit="10" x1="250.615" y1="133.731" x2="250.615" y2="101.702"/>
<line fill="none" stroke="#000000" stroke-miterlimit="10" x1="261.598" y1="128.56" x2="261.598" y2="95.232"/>
<line fill="none" stroke="#000000" stroke-miterlimit="10" x1="277.88" y1="118.397" x2="277.88" y2="91.701"/>
<line fill="none" stroke="#000000" stroke-miterlimit="10" x1="281.88" y1="116.23" x2="281.88" y2="97.897"/>
<line fill="none" stroke="#000000" stroke-miterlimit="10" x1="286.046" y1="114.066" x2="286.046" y2="85.065"/>
<polyline fill="none" stroke="#000000" stroke-miterlimit="10" points="239.845,37.278 239.88,50.23 223.713,54.064 223.713,34.73 
	238.88,31.064 246.88,35.23 230.845,39.897 223.713,34.73 "/>
<ellipse fill="none" stroke="#000000" stroke-width="0.5" stroke-miterlimit="10" cx="235.43" cy="35.115" rx="2.457" ry="1.051"/>
<polygon fill="none" stroke="#000000" stroke-miterlimit="10" points="237.886,63.732 238.462,69.316 242.796,72.368 
	239.962,74.479 209.962,51.482 209.962,44.899 223.379,54.064 "/>
<polyline fill="none" stroke="#000000" stroke-miterlimit="10" points="237.886,63.732 250.712,58.066 239.88,50.23 "/>
<polyline fill="none" stroke="#000000" stroke-miterlimit="10" points="238.712,63.732 246.88,72.066 248.629,71.482 251.067,68.43 
	251.067,58.066 "/>
<polyline fill="none" stroke="#000000" stroke-width="0.5" stroke-miterlimit="10" points="248.708,58.951 248.708,68.43 
	246.88,69.232 240.59,62.538 "/>
<line fill="none" stroke="#000000" stroke-miterlimit="10" x1="209.962" y1="44.481" x2="223.713" y2="40.647"/>
<ellipse fill="none" stroke="#000000" stroke-width="0.5" stroke-miterlimit="10" cx="236.256" cy="55.931" rx="2.457" ry="1.051"/>
<ellipse fill="none" stroke="#000000" stroke-width="0.5" stroke-miterlimit="10" cx="221.526" cy="46.399" rx="2.187" ry="1.051"/>
<path fill="none" stroke="#000000" stroke-width="0.5" stroke-miterlimit="10" d="M238.462,69.316"/>
<ellipse fill="none" stroke="#000000" stroke-width="3" stroke-miterlimit="10" cx="367.301" cy="66.079" rx="28.625" ry="29.154"/>
<path fill="none" stroke="#000000" stroke-width="2" stroke-miterlimit="10" d="M358.213,111.896v37.336l85.5-40.5
	c0,0,4.666-3.061-1-7.03s-38.334-17.553-38.334-17.553v-28.75l35.834,15c0,0,10.5,4.053,2.834,7.443
	c-7.668,3.39-85.667,34.054-85.667,34.054"/>
<line fill="none" stroke="#000000" stroke-width="3.5" stroke-miterlimit="10" x1="443.199" y1="71.725" x2="443.199" y2="102.286"/>
<line fill="none" stroke="#000000" stroke-miterlimit="10" x1="370.134" y1="143.585" x2="370.134" y2="111.896"/>
<line fill="none" stroke="#000000" stroke-miterlimit="10" x1="385.547" y1="133.731" x2="385.547" y2="107.981"/>
<line fill="none" stroke="#000000" stroke-miterlimit="10" x1="388.879" y1="132.566" x2="388.879" y2="114.066"/>
<line fill="none" stroke="#000000" stroke-miterlimit="10" x1="390.379" y1="114.066" x2="390.379" y2="102.286"/>
<line fill="none" stroke="#000000" stroke-miterlimit="10" x1="393.396" y1="132.566" x2="393.396" y2="102.316"/>
<line fill="none" stroke="#000000" stroke-width="2" stroke-miterlimit="10" x1="403.584" y1="127.741" x2="403.584" y2="99.566"/>
<line fill="none" stroke="#000000" stroke-miterlimit="10" x1="409.961" y1="124.72" x2="409.961" y2="94.232"/>
<line fill="none" stroke="#000000" stroke-miterlimit="10" x1="413.213" y1="107.064" x2="413.213" y2="89.853"/>
<line fill="none" stroke="#000000" stroke-miterlimit="10" x1="419.863" y1="120.03" x2="419.863" y2="93.112"/>
<line fill="none" stroke="#000000" stroke-miterlimit="10" x1="423.879" y1="117.716" x2="423.879" y2="105.049"/>
<line fill="none" stroke="#000000" stroke-miterlimit="10" x1="430.846" y1="114.827" x2="430.846" y2="98.458"/>
<line fill="none" stroke="#000000" stroke-miterlimit="10" x1="429.082" y1="94.852" x2="429.082" y2="76.638"/>
<line fill="none" stroke="#000000" stroke-miterlimit="10" x1="423.879" y1="63.562" x2="423.879" y2="92.265"/>
<line fill="none" stroke="#000000" stroke-miterlimit="10" x1="417.379" y1="77.842" x2="417.379" y2="63.562"/>
<line fill="none" stroke="#000000" stroke-miterlimit="10" x1="409.961" y1="86.118" x2="409.961" y2="65.066"/>
<line fill="none" stroke="#000000" stroke-miterlimit="10" x1="411.713" y1="72.943" x2="411.713" y2="58.469"/>
<ellipse fill="none" stroke="#000000" stroke-width="2" stroke-miterlimit="10" cx="399.379" cy="94.233" rx="6.658" ry="6.871"/>
<line fill="none" stroke="#000000" stroke-width="2" stroke-miterlimit="10" x1="394.25" y1="89.853" x2="388.879" y2="85.745"/>
<polygon fill="none" stroke="#000000" stroke-miterlimit="10" points="391.564,60.566 376.38,52.066 342.879,66.079 342.879,70.702 
	350.462,72.943 350.587,76.638 356.712,76.638 356.712,79.649 360.338,79.649 382.838,71.725 387.713,65.706 391.564,65.066 "/>
<path stroke="#000000" stroke-miterlimit="10" d="M407.947,55.399c0,1.087-1.42,1.969-3.166,1.969c-1.75,0-3.168-0.881-3.168-1.969
	c0-1.087,1.418-1.969,3.168-1.969C406.527,53.431,407.947,54.313,407.947,55.399z"/>
<polyline fill="none" stroke="#000000" stroke-miterlimit="10" points="369.528,54.932 375.087,58.469 375.087,62.774 
	350.462,72.943 350.462,67.149 347.103,64.312 "/>
<polyline fill="none" stroke="#000000" stroke-miterlimit="10" points="350.462,67.149 370.962,59.274 373.358,57.368 "/>
<polyline fill="none" stroke="#000000" stroke-miterlimit="10" points="356.712,76.638 376.921,68.43 374.421,67.149 
	352.045,76.638 "/>
<polyline fill="none" stroke="#000000" stroke-miterlimit="10" points="374.634,62.961 375.087,62.774 375.087,67.149 "/>
<line fill="none" stroke="#000000" stroke-miterlimit="10" x1="376.169" y1="68.735" x2="384.713" y2="68.735"/>
<polyline fill="none" stroke="#000000" stroke-miterlimit="10" points="375.694,67.802 382.963,63.562 387.713,65.706 "/>
<ellipse stroke="#000000" stroke-miterlimit="10" cx="398.588" cy="94.232" rx="2.127" ry="1.323"/>
<ellipse fill="none" stroke="#000000" stroke-width="3" stroke-miterlimit="10" cx="501.526" cy="61.555" rx="29.841" ry="30.01"/>
<path fill="none" stroke="#000000" stroke-width="3" stroke-miterlimit="10" d="M587.713,104.149l-1.375-0.875l-38.125-18.625
	l-1.76-0.917l-3.584-0.333c0,0-1-0.833-7.166-5.557s34-19.374,34-19.374l-0.166-23.736c0,0-27.5,11.5-32.168,13.833
	c-4.666,2.333,0.168,4.865,0.168,4.865l51,22.161v3.932v24.125v1.125v4.702l-4.168,2.923c0,0-3.666,1.333-10.166,3.333
	s-15.834,9.833-15.834,9.833h-4.332l-49.668,23.667l-0.656-34.833l83.5-34.75h0.625"/>
<line fill="none" stroke="#000000" stroke-miterlimit="10" x1="513.166" y1="145.041" x2="513.166" y2="123.399"/>
<line fill="none" stroke="#000000" stroke-width="2" stroke-miterlimit="10" x1="518.959" y1="142.28" x2="518.959" y2="112.899"/>
<line fill="none" stroke="#000000" stroke-width="2" stroke-miterlimit="10" x1="525.98" y1="138.935" x2="525.98" y2="111.649"/>
<line fill="none" stroke="#000000" stroke-miterlimit="10" x1="532.637" y1="135.763" x2="532.637" y2="122.899"/>
<line fill="none" stroke="#000000" stroke-miterlimit="10" x1="537.027" y1="133.671" x2="537.027" y2="115.024"/>
<line fill="none" stroke="#000000" stroke-miterlimit="10" x1="535.463" y1="120.149" x2="535.463" y2="105.274"/>
<line fill="none" stroke="#000000" stroke-miterlimit="10" x1="547.838" y1="127.589" x2="547.838" y2="102.316"/>
<line fill="none" stroke="#000000" stroke-miterlimit="10" x1="553.838" y1="124.347" x2="553.838" y2="106.274"/>
<line fill="none" stroke="#000000" stroke-miterlimit="10" x1="564.213" y1="118.524" x2="564.213" y2="95.649"/>
<line fill="none" stroke="#000000" stroke-miterlimit="10" x1="567.963" y1="114.953" x2="567.963" y2="107.086"/>
<line fill="none" stroke="#000000" stroke-miterlimit="10" x1="574.463" y1="112.711" x2="574.463" y2="98.899"/>
<line fill="none" stroke="#000000" stroke-miterlimit="10" x1="580.088" y1="111.02" x2="580.088" y2="83.899"/>
<line fill="none" stroke="#000000" stroke-miterlimit="10" x1="569.916" y1="95.251" x2="569.916" y2="68.524"/>
<line fill="none" stroke="#000000" stroke-width="4" stroke-miterlimit="10" x1="585.963" y1="111.02" x2="585.963" y2="74.473"/>
<line fill="none" stroke="#000000" stroke-miterlimit="10" x1="565.213" y1="81.274" x2="565.213" y2="66.399"/>
<line fill="none" stroke="#000000" stroke-width="3" stroke-miterlimit="10" x1="535.463" y1="74.473" x2="535.463" y2="52.399"/>
<line fill="none" stroke="#000000" stroke-miterlimit="10" x1="548.838" y1="54.274" x2="548.838" y2="44.024"/>
<line fill="none" stroke="#000000" stroke-width="2" stroke-miterlimit="10" x1="549.621" y1="85.337" x2="549.621" y2="58.682"/>
<line fill="none" stroke="#000000" stroke-miterlimit="10" x1="577.598" y1="70.838" x2="577.598" y2="83.65"/>
<line fill="none" stroke="#000000" stroke-width="3" stroke-miterlimit="10" x1="505.025" y1="113.852" x2="505.025" y2="97.459"/>
<line fill="none" stroke="#000000" stroke-width="3" stroke-miterlimit="10" x1="586.838" y1="74.473" x2="586.838" y2="62.274"/>
<line fill="none" stroke="#000000" stroke-width="3" stroke-miterlimit="10" x1="573.035" y1="68.856" x2="573.035" y2="53.649"/>
<line fill="none" stroke="#000000" stroke-width="3" stroke-miterlimit="10" x1="537.027" y1="48.748" x2="537.027" y2="35.774"/>
<line fill="none" stroke="#000000" stroke-width="3" stroke-miterlimit="10" x1="568.463" y1="34.732" x2="568.463" y2="23.524"/>
<line fill="none" stroke="#000000" stroke-miterlimit="10" x1="562.725" y1="61.148" x2="562.725" y2="49.149"/>
<line fill="none" stroke="#000000" stroke-miterlimit="10" x1="556.963" y1="61.555" x2="556.963" y2="50.399"/>
<line fill="none" stroke="#000000" stroke-miterlimit="10" x1="538.926" y1="72.472" x2="538.926" y2="63.436"/>
<line fill="none" stroke="#000000" stroke-miterlimit="10" x1="545.213" y1="67.954" x2="545.213" y2="59.649"/>
<line fill="none" stroke="#000000" stroke-miterlimit="10" x1="556.963" y1="87.877" x2="556.963" y2="70.838"/>
<ellipse fill="none" stroke="#000000" stroke-width="2" stroke-miterlimit="10" cx="543.587" cy="98.247" rx="7.276" ry="7.318"/>
<line fill="none" stroke="#000000" stroke-width="2" stroke-miterlimit="10" x1="543.588" y1="97.804" x2="543.588" y2="83.899"/>
<line fill="none" stroke="#000000" stroke-width="2" stroke-miterlimit="10" x1="524.02" y1="81.274" x2="537.68" y2="93.978"/>
<polygon fill="none" stroke="#000000" stroke-width="2" stroke-miterlimit="10" points="493.463,55.977 493.463,37.399 
	513.166,42.261 513.166,62.274 "/>
<ellipse fill="none" stroke="#000000" stroke-width="0.5" stroke-miterlimit="10" cx="498.087" cy="44.023" rx="1.87" ry="1.881"/>
<ellipse fill="none" stroke="#000000" stroke-width="0.5" stroke-miterlimit="10" cx="503.313" cy="45.258" rx="1.87" ry="1.881"/>
<ellipse fill="none" stroke="#000000" stroke-width="0.5" stroke-miterlimit="10" cx="508.462" cy="46.867" rx="1.87" ry="1.881"/>
<polyline fill="none" stroke="#000000" stroke-miterlimit="10" points="482.4,66.211 493.463,72.024 524.838,49.836 524.838,57.649 
	493.15,82.586 490.588,82.961 488.525,80.774 491.338,80.274 493.463,78.586 493.463,72.586 493.463,72.274 "/>
<polyline fill="none" stroke="#000000" stroke-width="0.5" stroke-miterlimit="10" points="524.838,55.399 493.463,79.149 
	493.463,82.524 "/>
<polyline fill="none" stroke="#000000" stroke-miterlimit="10" points="493.463,73.336 484.775,80.649 480.713,78.461 
	480.713,67.586 497.166,57.161 "/>
<line fill="none" stroke="#000000" stroke-width="0.5" stroke-miterlimit="10" x1="480.713" y1="67.836" x2="493.463" y2="74.461"/>
<polyline fill="none" stroke="#000000" stroke-width="0.5" stroke-miterlimit="10" points="486.49,79.205 482.713,77.086 
	482.713,68.961 "/>
<line fill="none" stroke="#000000" stroke-width="0.25" stroke-miterlimit="10" x1="482.713" y1="77.086" x2="488.939" y2="72.111"/>
<line fill="none" stroke="#000000" stroke-width="0.5" stroke-miterlimit="10" x1="487.85" y1="80.649" x2="493.285" y2="76.336"/>
<line fill="none" stroke="#000000" stroke-miterlimit="10" x1="525.09" y1="49.2" x2="514.215" y2="46.502"/>
<line fill="none" stroke="#000000" stroke-width="0.25" stroke-miterlimit="10" x1="243.525" y1="72.368" x2="238.462" y2="67.336"/>
<ellipse fill="none" stroke="#000000" stroke-width="0.5" stroke-miterlimit="10" cx="499.333" cy="62.274" rx="1.87" ry="1.881"/>
<polyline fill="none" stroke="#000000" stroke-miterlimit="10" points="73.462,66.399 73.462,75.493 77.231,77.649 86.215,71.995 
	"/>
<polyline fill="none" stroke="#000000" stroke-width="0.75" stroke-miterlimit="10" points="78.712,76.44 75.796,74.836 
	75.796,66.857 "/>
</svg>
