<?xml version="1.0" encoding="UTF-8"?>
<svg width="640" height="480" xmlns="http://www.w3.org/2000/svg" xmlns:xlink="http://www.w3.org/1999/xlink">
 <title>NetAlloyfarm-fence</title>
 <defs>
  <linearGradient id="linearGradient4071">
   <stop stop-color="#37abc8" id="stop4073" offset="0"/>
   <stop stop-color="#37abc8" stop-opacity="0" id="stop4075" offset="1"/>
  </linearGradient>
  <linearGradient id="linearGradient4037">
   <stop stop-color="#c17d11" id="stop4039" offset="0"/>
   <stop stop-color="#c17d11" stop-opacity="0" id="stop4041" offset="1"/>
  </linearGradient>
  <linearGradient id="linearGradient4027">
   <stop stop-color="#c17d11" id="stop4029" offset="0"/>
   <stop stop-color="#c17d11" stop-opacity="0" id="stop4031" offset="1"/>
  </linearGradient>
  <linearGradient id="linearGradient3905">
   <stop stop-color="#c17d11" id="stop3907" offset="0"/>
   <stop stop-color="#c17d11" stop-opacity="0" id="stop3909" offset="1"/>
  </linearGradient>
  <linearGradient id="linearGradient3107">
   <stop stop-color="#8ae234" id="stop3109" offset="0"/>
   <stop stop-color="#4e9a06" id="stop3111" offset="1"/>
  </linearGradient>
  <linearGradient y2="0.5" x2="0.281319" y1="0.076754" x1="0.273179" id="linearGradient3113" xlink:href="#linearGradient3107"/>
  <linearGradient y2="0.5875" x2="0.5" y1="0.579167" x1="0.057692" id="linearGradient3923" xlink:href="#linearGradient3905"/>
  <linearGradient y2="0.5875" x2="0.5" y1="0.579167" x1="0.057692" id="linearGradient3939" xlink:href="#linearGradient3905"/>
  <linearGradient y2="0.5875" x2="0.5" y1="0.5" x1="-0.028342" id="linearGradient3951" xlink:href="#linearGradient3905"/>
  <filter id="filter3954">
   <feGaussianBlur id="feGaussianBlur3956" stdDeviation="1.40185"/>
  </filter>
  <filter id="filter3962">
   <feGaussianBlur id="feGaussianBlur3964" stdDeviation="1.168208"/>
  </filter>
  <linearGradient y2="0.5875" x2="0.5" y1="0.5" x1="-0.028342" id="linearGradient3967" xlink:href="#linearGradient3905"/>
  <filter id="filter3969">
   <feGaussianBlur id="feGaussianBlur3971" stdDeviation="0.700925"/>
  </filter>
  <linearGradient y2="0.5875" x2="0.5" y1="0.5" x1="-0.028342" id="linearGradient3974" xlink:href="#linearGradient3905"/>
  <filter id="filter3976">
   <feGaussianBlur id="feGaussianBlur3978" stdDeviation="0.467283"/>
  </filter>
  <filter id="filter3981">
   <feGaussianBlur id="feGaussianBlur3983" stdDeviation="0.700925"/>
  </filter>
  <filter height="1.05283" y="-0.026415" width="1.316981" x="-0.158491" id="filter3997">
   <feGaussianBlur id="feGaussianBlur3999" stdDeviation="0.627312"/>
  </filter>
  <filter height="1.185486" y="-0.092743" width="1.507646" x="-0.253823" id="filter4001">
   <feGaussianBlur id="feGaussianBlur4003" stdDeviation="1.363443"/>
  </filter>
  <filter height="1.088553" y="-0.044277" width="1.209732" x="-0.104866" id="filter4007">
   <feGaussianBlur id="feGaussianBlur4009" stdDeviation="0.5633"/>
  </filter>
  <filter height="1.269434" y="-0.134717" width="1.673585" x="-0.336792" id="filter4013">
   <feGaussianBlur id="feGaussianBlur4015" stdDeviation="1.713906"/>
  </filter>
  <filter height="1.262833" y="-0.131416" width="1.292634" x="-0.146317" id="filter4017">
   <feGaussianBlur id="feGaussianBlur4019" stdDeviation="1.215469"/>
  </filter>
  <linearGradient y2="0.5" x2="0.345487" y1="0.034733" x1="0.350703" id="linearGradient4033" xlink:href="#linearGradient4027"/>
  <linearGradient y2="0.5" x2="0.305763" y1="-0.13317" x1="0.310942" id="linearGradient4043" xlink:href="#linearGradient4037"/>
  <linearGradient y2="0.825448" x2="0.5" y1="0.021828" x1="0.490756" id="linearGradient4077" xlink:href="#linearGradient4071"/>
 </defs>
 <metadata id="metadata3099">image/svg+xmlNetAlloyfarm-fence08-Apr-2010netalloynetalloy.comfarmfenceagriculturereal estatelandpropertylandscapescenarygreennaturegolfgrass</metadata>
 <g>
  <title>Layer 1</title>
  <rect fill="url(#linearGradient4077)" stroke="#6c4509" stroke-width="1.00015" stroke-linecap="square" stroke-miterlimit="4" stroke-dashoffset="0" y="-127.002926" x="-634.002926" height="275.00586" width="595.00586" id="rect4069"/>
  <path fill="#4e9a06" stroke="#8b8b8b" stroke-width="0" stroke-linecap="square" stroke-miterlimit="4" stroke-dashoffset="0" d="m746.930847,-122.798157c193.331665,-123.303619 403.135803,-21.9189 594.666809,-36.685318l-0.680664,233.665543l-595.419128,-2l1.432983,-194.980209l0,-0.000015z" id="path3115"/>
  <path fill="#73d216" stroke="#8b8b8b" stroke-width="0" stroke-linecap="square" stroke-miterlimit="4" stroke-dashoffset="0" id="path3117" d="m-641.180664,282.322693c192.683014,-113.963531 402.532928,26.491425 593.421326,12.843567l1.678528,180.015808l-590.421326,1l-4.678528,-193.859375l0,0z"/>
  <path fill="url(#linearGradient3113)" stroke="#8b8b8b" stroke-width="0" stroke-linecap="square" stroke-miterlimit="4" stroke-dashoffset="0" id="rect3104" d="m758.029358,373.621521c196.349304,-91.742432 400.047791,-22.260773 594.568298,-33.247528l-0.691284,179.808075l-588.408508,0l-5.468567,-146.560547l0.000061,0z"/>
  <g id="svg_1">
   <rect fill="#8f5902" fill-opacity="0.97093" stroke="#8b8b8b" stroke-width="0" stroke-linecap="square" stroke-miterlimit="4" stroke-dashoffset="0" id="rect3129" width="35.283092" height="162.84503" x="551.63757" y="269.65851"/>
   <g id="g3913">
    <rect fill="#8f5902" fill-opacity="0.97093" stroke="#622e13" stroke-width="2" stroke-linecap="square" stroke-miterlimit="4" stroke-dashoffset="0" y="267.62292" x="162.16652" height="162.84503" width="35.283092" id="rect3121"/>
    <path fill="url(#linearGradient3974)" stroke="#622e13" stroke-width="2" stroke-linecap="square" stroke-miterlimit="4" stroke-dashoffset="0" filter="url(#filter3976)" id="rect3903" d="m162.166519,267.622925l35.283096,0l0,162.845032l-35.283096,0c19.114868,-53.421051 10.976318,-104.448151 0,-162.845032z"/>
   </g>
   <g id="g3917">
    <rect fill="#8f5902" fill-opacity="0.97093" stroke="#622e13" stroke-width="2" stroke-linecap="square" stroke-miterlimit="4" stroke-dashoffset="0" id="rect3919" width="35.283092" height="162.84503" x="74.637315" y="268.979962"/>
    <path fill="url(#linearGradient3923)" stroke="#622e13" stroke-width="1.5" stroke-linecap="square" stroke-miterlimit="4" stroke-dashoffset="0" filter="url(#filter3981)" id="rect3921" d="m74.637314,268.97998l35.283096,0c0,54.281677 -15.31456,103.458527 0,162.845032l-35.283096,0l0,-162.845032z"/>
   </g>
   <g id="g3925">
    <rect fill="#8f5902" fill-opacity="0.97093" stroke="#622e13" stroke-width="2" stroke-linecap="square" stroke-miterlimit="4" stroke-dashoffset="0" y="268.979962" x="255.802415" height="162.84503" width="35.283092" id="rect3927"/>
    <path fill="url(#linearGradient3967)" stroke="#622e13" stroke-width="2" stroke-linecap="square" stroke-miterlimit="4" stroke-dashoffset="0" filter="url(#filter3969)" id="rect3929" d="m255.802414,268.97998l35.283096,0l0,162.845032l-35.283096,0c0.199448,-54.780243 9.640488,-132.664581 0,-162.845032z"/>
   </g>
   <g id="g3933">
    <rect fill="#8f5902" fill-opacity="0.97093" stroke="#622e13" stroke-width="2" stroke-linecap="square" stroke-miterlimit="4" stroke-dashoffset="0" id="rect3935" width="35.283092" height="162.84503" x="356.902039" y="268.301441"/>
    <path fill="url(#linearGradient3939)" stroke="#622e13" stroke-width="1.3" stroke-linecap="square" stroke-miterlimit="4" stroke-dashoffset="0" filter="url(#filter3954)" id="rect3937" d="m356.902039,268.301453l35.283081,0c-9.067139,73.927216 -12.526917,135.705048 0,162.845032l-35.283081,0l0,-162.845032z"/>
   </g>
   <g id="g3941">
    <path fill="#8f5902" fill-opacity="0.97093" stroke="#622e13" stroke-width="2" stroke-linecap="square" stroke-miterlimit="4" stroke-dashoffset="0" id="rect3943" d="m447.145325,268.301453l35.283112,0l0,162.845032l-35.283112,0l0,-162.845032z"/>
    <path fill="url(#linearGradient3951)" stroke="#622e13" stroke-width="0" stroke-linecap="square" stroke-miterlimit="4" stroke-dashoffset="0" filter="url(#filter3962)" id="rect3945" d="m449.859436,268.301453l32.569,0l0,162.845032l-35.283112,0c3.455444,-54.281677 17.624969,-108.563354 2.714111,-162.845032z"/>
   </g>
   <path fill="#8f5902" stroke="#e4a13a" stroke-width="3.4" stroke-miterlimit="4" opacity="0.274038" filter="url(#filter4017)" d="m91.655891,308.164337c-0.619598,-0.332397 -0.062363,-1.701935 0.300018,-1.896271c0.982048,-0.526733 1.738113,1.395721 1.759636,3.00119c0.038513,2.871765 -1.514641,4.782257 -2.959709,4.583984c-2.120674,-0.290955 -3.473282,-4.195709 -3.219254,-7.898682c0.338562,-4.935516 3.044678,-8.021484 5.6194,-7.271729c3.240036,0.94342 5.242607,7.018799 4.678886,12.796204c-0.682755,6.997192 -4.579277,11.289398 -8.279099,9.959442c-4.360107,-1.56723 -7.0205,-9.84613 -6.138512,-17.693695c1.018303,-9.060333 6.115242,-14.566925 10.938797,-12.647186c5.480835,2.181305 8.801826,12.675049 7.598129,22.591217c-1.180969,9.728912 -6.235397,16.368835 -11.588242,15.85321" id="path3985"/>
   <path opacity="0.274038" fill="#8f5902" fill-opacity="0.97093" stroke="#e4a13a" stroke-width="3.4" stroke-linecap="square" stroke-miterlimit="4" stroke-dashoffset="0" filter="url(#filter4001)" d="m282.26474,307.65567a6.44595,17.64155 0 1 1 -12.891907,0a6.44595,17.64155 0 1 1 12.891907,0z" id="path3993"/>
   <path opacity="0.274038" fill="#8f5902" fill-opacity="0.97093" stroke="#e4a13a" stroke-width="3.4" stroke-linecap="square" stroke-miterlimit="4" stroke-dashoffset="0" filter="url(#filter3997)" d="m275.479523,392.470795a4.74965,28.497881 0 1 1 -9.499298,0a4.74965,28.497881 0 1 1 9.499298,0z" id="path3995"/>
   <path opacity="0.274038" fill="#8f5902" fill-opacity="0.97093" stroke="#e4a13a" stroke-width="3.4" stroke-linecap="square" stroke-miterlimit="4" stroke-dashoffset="0" filter="url(#filter4007)" d="m377.936188,320.208313a6.44595,15.26672 0 1 1 -12.891907,0a6.44595,15.26672 0 1 1 12.891907,0z" id="path4005"/>
   <path opacity="0.274038" fill="#8f5902" fill-opacity="0.97093" stroke="#e4a13a" stroke-width="3.4" stroke-linecap="square" stroke-miterlimit="4" stroke-dashoffset="0" filter="url(#filter4013)" d="m472.929138,389.41745a6.10669,15.26672 0 1 1 -12.213379,0a6.10669,15.26672 0 1 1 12.213379,0z" id="path4011"/>
   <rect fill="#8f5902" fill-opacity="0.97093" stroke="#6c4509" stroke-width="1.628" stroke-linecap="square" stroke-miterlimit="4" stroke-dashoffset="0" y="317.94739" x="29.2903" height="30.305651" width="575.15802" id="rect4021"/>
   <rect fill="#8f5902" fill-opacity="0.97093" stroke="#55370a" stroke-width="1.006" stroke-linecap="square" stroke-miterlimit="4" stroke-dashoffset="0" y="381.03876" x="25.8866" height="30.327841" width="579.25134" id="rect4023"/>
   <rect fill="url(#linearGradient4033)" stroke="#6c4509" stroke-width="1.628" stroke-linecap="square" stroke-miterlimit="4" stroke-dashoffset="0" id="rect4025" width="575.15802" height="30.305651" x="29.2903" y="317.94739"/>
   <rect fill="url(#linearGradient4043)" stroke="#55370a" stroke-width="1.006" stroke-linecap="square" stroke-miterlimit="4" stroke-dashoffset="0" id="rect4035" width="579.25134" height="30.327841" x="25.8866" y="381.03876"/>
   <path fill="#803300" fill-opacity="0.97093" stroke="#6c4509" stroke-width="1.006" stroke-linecap="square" stroke-miterlimit="4" stroke-dashoffset="0" d="m94.625221,403.229401l-5.475395,1.024841l-3.625221,-4.229431l1.850182,-5.254242l5.475395,-1.024811l3.625221,4.229401l-1.850182,5.254242z" id="path4045"/>
   <path fill="#803300" fill-opacity="0.97093" stroke="#6c4509" stroke-width="1.006" stroke-linecap="square" stroke-miterlimit="4" stroke-dashoffset="0" id="path4047" d="m97.625221,337.229401l-5.475395,1.024841l-3.625221,-4.229431l1.850182,-5.254242l5.475395,-1.024811l3.625221,4.229401l-1.850182,5.254242z"/>
   <path fill="#803300" fill-opacity="0.97093" stroke="#6c4509" stroke-width="1.006" stroke-linecap="square" stroke-miterlimit="4" stroke-dashoffset="0" id="path4049" d="m180.625229,403.229401l-5.475403,1.024841l-3.625214,-4.229431l1.850174,-5.254242l5.475403,-1.024811l3.625214,4.229401l-1.850174,5.254242z"/>
   <path fill="#8f5902" fill-opacity="0.97093" stroke="#6c4509" stroke-width="1.006" stroke-linecap="square" stroke-miterlimit="4" stroke-dashoffset="0" d="m276.625214,403.229401l-5.475403,1.024841l-3.625214,-4.229431l1.850189,-5.254242l5.475403,-1.024811l3.625214,4.229401l-1.850189,5.254242z" id="path4051"/>
   <path fill="#8f5902" fill-opacity="0.97093" stroke="#6c4509" stroke-width="1.006" stroke-linecap="square" stroke-miterlimit="4" stroke-dashoffset="0" d="m175.625229,338.229401l-5.475403,1.024841l-3.625214,-4.229431l1.850174,-5.254242l5.475403,-1.024811l3.625214,4.229401l-1.850174,5.254242z" id="path4053"/>
   <path fill="#8f5902" fill-opacity="0.97093" stroke="#6c4509" stroke-width="1.006" stroke-linecap="square" stroke-miterlimit="4" stroke-dashoffset="0" id="path4055" d="m279.625214,338.229401l-5.475403,1.024841l-3.625214,-4.229431l1.850189,-5.254242l5.475403,-1.024811l3.625214,4.229401l-1.850189,5.254242z"/>
   <path fill="#8f5902" fill-opacity="0.97093" stroke="#6c4509" stroke-width="1.006" stroke-linecap="square" stroke-miterlimit="4" stroke-dashoffset="0" d="m377.625214,338.229401l-5.475403,1.024841l-3.625214,-4.229431l1.850189,-5.254242l5.475403,-1.024811l3.625214,4.229401l-1.850189,5.254242z" id="path4057"/>
   <path fill="#8f5902" fill-opacity="0.97093" stroke="#6c4509" stroke-width="1.006" stroke-linecap="square" stroke-miterlimit="4" stroke-dashoffset="0" id="path4059" d="m465.625214,338.229401l-5.475403,1.024841l-3.625214,-4.229431l1.850189,-5.254242l5.475403,-1.024811l3.625214,4.229401l-1.850189,5.254242z"/>
   <path fill="#8f5902" fill-opacity="0.97093" stroke="#6c4509" stroke-width="1.006" stroke-linecap="square" stroke-miterlimit="4" stroke-dashoffset="0" d="m573.625244,338.229401l-5.475403,1.024841l-3.625244,-4.229431l1.850159,-5.254242l5.475403,-1.024811l3.625244,4.229401l-1.850159,5.254242z" id="path4061"/>
   <path fill="#8f5902" fill-opacity="0.97093" stroke="#6c4509" stroke-width="1.006" stroke-linecap="square" stroke-miterlimit="4" stroke-dashoffset="0" id="path4063" d="m574.625244,399.229401l-5.475403,1.024841l-3.625244,-4.229431l1.850159,-5.254242l5.475403,-1.024811l3.625244,4.229401l-1.850159,5.254242z"/>
   <path fill="#8f5902" fill-opacity="0.97093" stroke="#6c4509" stroke-width="1.006" stroke-linecap="square" stroke-miterlimit="4" stroke-dashoffset="0" d="m471.625214,400.229401l-5.475403,1.024841l-3.625214,-4.229431l1.850189,-5.254242l5.475403,-1.024811l3.625214,4.229401l-1.850189,5.254242z" id="path4065"/>
   <path fill="#8f5902" fill-opacity="0.97093" stroke="#6c4509" stroke-width="1.006" stroke-linecap="square" stroke-miterlimit="4" stroke-dashoffset="0" id="path4067" d="m382.625214,404.229401l-5.475403,1.024841l-3.625214,-4.229431l1.850189,-5.254242l5.475403,-1.024811l3.625214,4.229401l-1.850189,5.254242z"/>
  </g>
 </g>
</svg>